<svg data-v-fde0c5aa="" xmlns="http://www.w3.org/2000/svg" viewBox="0 0 300 300" class="icon"><!----><defs data-v-fde0c5aa=""><linearGradient data-v-fde0c5aa="" gradientTransform="rotate(25)" id="9267eb77-bf0c-4658-a7a2-3dc55ee2416f" x1="0%" y1="0%" x2="100%" y2="0%"><stop data-v-fde0c5aa="" offset="0%" stop-color="#365abd" stop-opacity="1"></stop><stop data-v-fde0c5aa="" offset="100%" stop-color="#1b3c98" stop-opacity="1"></stop></linearGradient></defs><rect data-v-fde0c5aa="" fill="url(#9267eb77-bf0c-4658-a7a2-3dc55ee2416f)" x="0" y="0" width="300px" height="300px" class="logo-background-square"></rect><!----><defs data-v-fde0c5aa=""><linearGradient data-v-fde0c5aa="" gradientTransform="rotate(25)" id="10fe0749-e2a5-4be8-922c-80350450850f" x1="0%" y1="0%" x2="100%" y2="0%"><stop data-v-fde0c5aa="" offset="0%" stop-color="#ff5080" stop-opacity="1"></stop><stop data-v-fde0c5aa="" offset="100%" stop-color="#ffb8cb" stop-opacity="1"></stop></linearGradient></defs><g data-v-fde0c5aa="" id="0deec01a-b267-47d1-9d31-5db5dc7a266e" fill="url(#10fe0749-e2a5-4be8-922c-80350450850f)" stroke="none" transform="matrix(2.7795839309692383,0,0,2.7795839309692383,11.02072438271371,11.020051074993372)"><path d="M86.139 51.081s-6.427-.346-14.657 3.3c0 0 11.394-13.347 12.998-24.323 0 0-4.716-.16-11.249 4.14 0 0 8.799-9.489 11.162-23.772-13.578 5.022-21.231 15.458-21.231 15.458 2.986-7.229 1.938-11.829 1.938-11.829C54.625 17.707 43.673 31.42 43.673 31.42c2.022-8.771.467-15.017.467-15.017-12.097 7.425-23.479 24.556-23.479 24.556-10.445 12.65-8.658 31.372 3.991 41.816 12.649 10.445 31.371 8.657 41.816-3.992.001-.001 14.669-14.419 19.671-27.702zM28.315 78.339c-8.817-7.28-10.063-20.329-2.782-29.146 7.28-8.817 20.328-10.063 29.145-2.782 8.817 7.281 10.063 20.329 2.783 29.145-7.28 8.818-20.329 10.064-29.146 2.783z"></path><path d="M53.236 72.068s-.184.34-.528.91a5.716 5.716 0 0 1-.708.983c-.301.37-.648.803-1.096 1.179l-.68.624c-.252.191-.526.374-.804.572-.542.418-1.192.732-1.855 1.082-.694.266-1.396.618-2.168.788-.754.241-1.554.328-2.347.45-.801.03-1.604.099-2.39.003-.791-.017-1.547-.233-2.279-.362-.716-.219-1.415-.4-2.026-.71l-.898-.411c-.271-.167-.535-.328-.786-.484-.513-.286-.926-.639-1.288-.944a5.856 5.856 0 0 1-.889-.837c-.455-.502-.692-.797-.692-.797s.363.15.957.431c.287.153.654.302 1.075.462.417.167.877.357 1.399.51.508.181 1.07.328 1.663.466.582.18 1.232.209 1.866.355.656.051 1.324.135 2.009.125.683.038 1.373-.031 2.064-.063.683-.1 1.375-.161 2.038-.328.675-.116 1.314-.328 1.949-.502.595-.265 1.23-.414 1.766-.701l.811-.371.734-.401c.487-.252.894-.519 1.267-.758a8.57 8.57 0 0 0 .976-.664c.536-.395.86-.607.86-.607z"></path></g><!----></svg>