<svg data-v-423bf9ae="" xmlns="http://www.w3.org/2000/svg" viewBox="0 0 366 90" class="iconLeft"><!----><!----><!----><g data-v-423bf9ae="" id="812e200a-8c22-4f6e-8b8f-d3c98b14997d" fill="white" transform="matrix(5.813953876495361,0,0,5.813953876495361,97.30371856689453,0.9302300810813904)"><path d="M2.89 12.67L0.84 12.67L0.84 2.42L1.52 2.42L5.97 7.48L10.42 2.42L11.10 2.42L11.10 12.67L9.05 12.67L9.04 6.73L5.97 10.14L2.89 6.73L2.89 12.67ZM12.63 9.26L12.63 9.26L12.63 9.26Q12.63 7.75 13.58 6.79L13.58 6.79L13.58 6.79Q14.54 5.84 16.04 5.84L16.04 5.84L16.04 5.84Q17.55 5.84 18.44 6.79L18.44 6.79L18.44 6.79Q19.33 7.75 19.33 9.26L19.33 9.26L19.33 9.94L14.61 9.94L14.61 9.94Q14.68 10.49 15.09 10.79L15.09 10.79L15.09 10.79Q15.50 11.10 16.04 11.10L16.04 11.10L16.04 11.10Q17.00 11.10 17.75 10.55L17.75 10.55L18.85 11.65L18.85 11.65Q18.09 12.67 16.04 12.67L16.04 12.67L16.04 12.67Q14.54 12.67 13.58 11.72L13.58 11.72L13.58 11.72Q12.63 10.76 12.63 9.26ZM17.41 8.57L17.41 8.57Q17.41 8.03 17.00 7.72L17.00 7.72L17.00 7.72Q16.59 7.41 16.04 7.41L16.04 7.41L16.04 7.41Q15.50 7.41 15.09 7.72L15.09 7.72L15.09 7.72Q14.68 8.03 14.68 8.57L14.68 8.57L17.41 8.57ZM25.05 12.35L25.05 12.35Q24.55 12.67 23.92 12.67L23.92 12.67L23.92 12.67Q22.76 12.67 22.07 12.02L22.07 12.02L22.07 12.02Q21.39 11.38 21.39 10.35L21.39 10.35L21.39 7.39L20.36 7.39L20.36 5.84L21.39 5.84L21.39 3.99L23.31 3.79L23.31 5.84L24.34 5.84L24.34 7.39L23.31 7.39L23.31 10.08L23.31 10.08Q23.31 10.62 23.54 10.85L23.54 10.85L23.54 10.85Q23.77 11.07 24.13 11.07L24.13 11.07L24.13 11.07Q24.24 11.07 24.64 10.98L24.64 10.98L25.05 12.35ZM25.85 9.26L25.85 9.26L25.85 9.26Q25.85 7.75 26.80 6.79L26.80 6.79L26.80 6.79Q27.76 5.84 29.26 5.84L29.26 5.84L29.26 5.84Q30.77 5.84 31.66 6.79L31.66 6.79L31.66 6.79Q32.55 7.75 32.55 9.26L32.55 9.26L32.55 9.94L27.83 9.94L27.83 9.94Q27.90 10.49 28.31 10.79L28.31 10.79L28.31 10.79Q28.72 11.10 29.26 11.10L29.26 11.10L29.26 11.10Q30.22 11.10 30.97 10.55L30.97 10.55L32.07 11.65L32.07 11.65Q31.32 12.67 29.26 12.67L29.26 12.67L29.26 12.67Q27.76 12.67 26.80 11.72L26.80 11.72L26.80 11.72Q25.85 10.76 25.85 9.26ZM30.63 8.57L30.63 8.57Q30.63 8.03 30.22 7.72L30.22 7.72L30.22 7.72Q29.81 7.41 29.26 7.41L29.26 7.41L29.26 7.41Q28.72 7.41 28.31 7.72L28.31 7.72L28.31 7.72Q27.90 8.03 27.90 8.57L27.90 8.57L30.63 8.57ZM37.14 12.74L37.14 12.74Q35.65 12.74 34.65 11.74L34.65 11.74L34.65 11.74Q33.65 10.74 33.65 9.26L33.65 9.26L33.65 9.26Q33.65 7.77 34.65 6.77L34.65 6.77L34.65 6.77Q35.65 5.77 37.14 5.77L37.14 5.77L37.14 5.77Q38.63 5.77 39.63 6.77L39.63 6.77L39.63 6.77Q40.63 7.77 40.63 9.26L40.63 9.26L40.63 9.26Q40.63 10.75 39.63 11.74L39.63 11.74L39.63 11.74Q38.63 12.74 37.14 12.74L37.14 12.74ZM37.13 11.09L37.13 11.09L37.13 11.09Q37.91 11.09 38.40 10.56L38.40 10.56L38.40 10.56Q38.88 10.04 38.88 9.26L38.88 9.26L38.88 9.26Q38.88 8.48 38.40 7.96L38.40 7.96L38.40 7.96Q37.91 7.43 37.13 7.43L37.13 7.43L37.13 7.43Q36.35 7.43 35.87 7.96L35.87 7.96L35.87 7.96Q35.38 8.48 35.38 9.26L35.38 9.26L35.38 9.26Q35.38 10.04 35.87 10.56L35.87 10.56L35.87 10.56Q36.35 11.09 37.13 11.09ZM43.69 5.83L43.69 6.59L43.69 6.59Q44.42 5.84 45.47 5.84L45.47 5.84L45.47 5.84Q45.81 5.84 46.11 5.89L46.11 5.89L45.81 7.78L45.81 7.78Q45.47 7.48 44.85 7.46L44.85 7.46L44.85 7.46Q44.15 7.51 43.69 8.47L43.69 8.47L43.69 12.67L41.77 12.67L41.77 6.04L43.69 5.83Z"></path></g><!----><g data-v-423bf9ae="" id="384f8455-252f-44cc-90f0-b42d46b5f845" transform="matrix(1.137102484703064,0,0,1.137102484703064,-14.994101524353027,-11.42943000793457)" stroke="none" fill="white"><path d="M86.139 51.081s-6.427-.346-14.657 3.3c0 0 11.394-13.347 12.998-24.323 0 0-4.716-.16-11.249 4.14 0 0 8.799-9.489 11.162-23.772-13.578 5.022-21.231 15.458-21.231 15.458 2.986-7.229 1.938-11.829 1.938-11.829C54.625 17.707 43.673 31.42 43.673 31.42c2.022-8.771.467-15.017.467-15.017-12.097 7.425-23.479 24.556-23.479 24.556-10.445 12.65-8.658 31.372 3.991 41.816 12.649 10.445 31.371 8.657 41.816-3.992.001-.001 14.669-14.419 19.671-27.702zM28.315 78.339c-8.817-7.28-10.063-20.329-2.782-29.146 7.28-8.817 20.328-10.063 29.145-2.782 8.817 7.281 10.063 20.329 2.783 29.145-7.28 8.818-20.329 10.064-29.146 2.783z"></path><path d="M53.236 72.068s-.184.34-.528.91a5.716 5.716 0 0 1-.708.983c-.301.37-.648.803-1.096 1.179l-.68.624c-.252.191-.526.374-.804.572-.542.418-1.192.732-1.855 1.082-.694.266-1.396.618-2.168.788-.754.241-1.554.328-2.347.45-.801.03-1.604.099-2.39.003-.791-.017-1.547-.233-2.279-.362-.716-.219-1.415-.4-2.026-.71l-.898-.411c-.271-.167-.535-.328-.786-.484-.513-.286-.926-.639-1.288-.944a5.856 5.856 0 0 1-.889-.837c-.455-.502-.692-.797-.692-.797s.363.15.957.431c.287.153.654.302 1.075.462.417.167.877.357 1.399.51.508.181 1.07.328 1.663.466.582.18 1.232.209 1.866.355.656.051 1.324.135 2.009.125.683.038 1.373-.031 2.064-.063.683-.1 1.375-.161 2.038-.328.675-.116 1.314-.328 1.949-.502.595-.265 1.23-.414 1.766-.701l.811-.371.734-.401c.487-.252.894-.519 1.267-.758a8.57 8.57 0 0 0 .976-.664c.536-.395.86-.607.86-.607z"></path></g><!----></svg>