<svg data-v-423bf9ae="" xmlns="http://www.w3.org/2000/svg" viewBox="0 0 309 95" class="iconLeft"><!----><!----><!----><g data-v-423bf9ae="" id="9eecb731-38f9-42be-87b0-aade594724b5" fill="white" transform="matrix(5.830904006958008,0,0,5.830904006958008,104.29191589355469,0.11672994494438171)"><path d="M8.83 13.05L7.78 13.05L7.78 13.05Q7.52 12.33 7.28 11.68L7.28 11.68L7.28 11.68Q7.04 11.02 6.82 10.39L6.82 10.39L2.10 10.39L2.10 10.39Q1.86 11.02 1.62 11.68L1.62 11.68L1.62 11.68Q1.39 12.33 1.13 13.05L1.13 13.05L0.14 13.05L0.14 13.05Q0.70 11.54 1.19 10.23L1.19 10.23L1.19 10.23Q1.68 8.92 2.15 7.75L2.15 7.75L2.15 7.75Q2.62 6.58 3.08 5.50L3.08 5.50L3.08 5.50Q3.54 4.42 4.06 3.35L4.06 3.35L4.90 3.35L4.90 3.35Q5.42 4.42 5.88 5.50L5.88 5.50L5.88 5.50Q6.34 6.58 6.81 7.75L6.81 7.75L6.81 7.75Q7.28 8.92 7.77 10.23L7.77 10.23L7.77 10.23Q8.26 11.54 8.83 13.05L8.83 13.05ZM4.45 4.44L4.45 4.44L4.45 4.44Q3.92 5.64 3.42 6.89L3.42 6.89L3.42 6.89Q2.93 8.13 2.39 9.58L2.39 9.58L6.52 9.58L6.52 9.58Q5.99 8.13 5.49 6.89L5.49 6.89L5.49 6.89Q4.98 5.64 4.45 4.44ZM11.66 12.40L11.66 12.40L11.66 12.40Q12.45 12.40 12.96 12.14L12.96 12.14L12.96 12.14Q13.47 11.89 13.47 11.27L13.47 11.27L13.47 11.27Q13.47 10.98 13.38 10.77L13.38 10.77L13.38 10.77Q13.29 10.56 13.08 10.39L13.08 10.39L13.08 10.39Q12.87 10.22 12.52 10.07L12.52 10.07L12.52 10.07Q12.18 9.91 11.68 9.70L11.68 9.70L11.68 9.70Q11.27 9.53 10.91 9.36L10.91 9.36L10.91 9.36Q10.54 9.18 10.26 8.95L10.26 8.95L10.26 8.95Q9.98 8.72 9.81 8.40L9.81 8.40L9.81 8.40Q9.65 8.08 9.65 7.62L9.65 7.62L9.65 7.62Q9.65 6.73 10.31 6.19L10.31 6.19L10.31 6.19Q10.98 5.64 12.14 5.64L12.14 5.64L12.14 5.64Q12.88 5.64 13.36 5.77L13.36 5.77L13.36 5.77Q13.85 5.89 14.04 5.99L14.04 5.99L13.83 6.80L13.83 6.80Q13.66 6.72 13.27 6.58L13.27 6.58L13.27 6.58Q12.87 6.44 12.10 6.44L12.10 6.44L12.10 6.44Q11.79 6.44 11.52 6.50L11.52 6.50L11.52 6.50Q11.24 6.57 11.03 6.70L11.03 6.70L11.03 6.70Q10.82 6.83 10.70 7.04L10.70 7.04L10.70 7.04Q10.57 7.24 10.57 7.53L10.57 7.53L10.57 7.53Q10.57 7.83 10.68 8.04L10.68 8.04L10.68 8.04Q10.79 8.25 11.01 8.41L11.01 8.41L11.01 8.41Q11.23 8.57 11.54 8.71L11.54 8.71L11.54 8.71Q11.86 8.85 12.26 9.02L12.26 9.02L12.26 9.02Q12.68 9.18 13.07 9.36L13.07 9.36L13.07 9.36Q13.45 9.53 13.75 9.78L13.75 9.78L13.75 9.78Q14.04 10.02 14.22 10.37L14.22 10.37L14.22 10.37Q14.41 10.71 14.41 11.23L14.41 11.23L14.41 11.23Q14.41 12.21 13.67 12.71L13.67 12.71L13.67 12.71Q12.94 13.22 11.66 13.22L11.66 13.22L11.66 13.22Q10.71 13.22 10.21 13.05L10.21 13.05L10.21 13.05Q9.70 12.89 9.53 12.81L9.53 12.81L9.77 11.98L9.77 11.98Q9.81 12.01 9.95 12.07L9.95 12.07L9.95 12.07Q10.09 12.14 10.33 12.21L10.33 12.21L10.33 12.21Q10.57 12.29 10.90 12.35L10.90 12.35L10.90 12.35Q11.23 12.40 11.66 12.40ZM17.02 3.51L17.02 5.81L19.91 5.81L19.91 6.58L17.02 6.58L17.02 10.43L17.02 10.43Q17.02 11.05 17.13 11.43L17.13 11.43L17.13 11.43Q17.23 11.82 17.43 12.03L17.43 12.03L17.43 12.03Q17.63 12.24 17.91 12.31L17.91 12.31L17.91 12.31Q18.19 12.38 18.52 12.38L18.52 12.38L18.52 12.38Q19.10 12.38 19.45 12.24L19.45 12.24L19.45 12.24Q19.80 12.11 19.99 12.00L19.99 12.00L20.22 12.75L20.22 12.75Q20.02 12.88 19.53 13.04L19.53 13.04L19.53 13.04Q19.04 13.20 18.47 13.20L18.47 13.20L18.47 13.20Q17.79 13.20 17.34 13.03L17.34 13.03L17.34 13.03Q16.88 12.85 16.61 12.49L16.61 12.49L16.61 12.49Q16.34 12.14 16.23 11.61L16.23 11.61L16.23 11.61Q16.11 11.07 16.11 10.35L16.11 10.35L16.11 3.68L17.02 3.51ZM24.05 5.67L24.05 5.67L24.05 5.67Q24.50 5.67 24.90 5.74L24.90 5.74L24.90 5.74Q25.30 5.81 25.45 5.88L25.45 5.88L25.27 6.66L25.27 6.66Q25.16 6.61 24.82 6.54L24.82 6.54L24.82 6.54Q24.47 6.48 23.91 6.48L23.91 6.48L23.91 6.48Q23.32 6.48 22.97 6.57L22.97 6.57L22.97 6.57Q22.61 6.65 22.50 6.71L22.50 6.71L22.50 13.05L21.59 13.05L21.59 6.15L21.59 6.15Q21.94 5.99 22.55 5.83L22.55 5.83L22.55 5.83Q23.17 5.67 24.05 5.67ZM27.73 5.81L27.73 13.05L26.82 13.05L26.82 5.81L27.73 5.81ZM27.94 3.63L27.94 3.63L27.94 3.63Q27.94 3.95 27.75 4.14L27.75 4.14L27.75 4.14Q27.55 4.33 27.27 4.33L27.27 4.33L27.27 4.33Q26.99 4.33 26.80 4.14L26.80 4.14L26.80 4.14Q26.60 3.95 26.60 3.63L26.60 3.63L26.60 3.63Q26.60 3.30 26.80 3.12L26.80 3.12L26.80 3.12Q26.99 2.93 27.27 2.93L27.27 2.93L27.27 2.93Q27.55 2.93 27.75 3.12L27.75 3.12L27.75 3.12Q27.94 3.30 27.94 3.63ZM32.42 12.39L32.42 12.39L32.42 12.39Q32.96 12.39 33.36 12.36L33.36 12.36L33.36 12.36Q33.75 12.32 34.03 12.26L34.03 12.26L34.03 9.72L34.03 9.72Q33.88 9.65 33.54 9.57L33.54 9.57L33.54 9.57Q33.21 9.49 32.62 9.49L32.62 9.49L32.62 9.49Q32.28 9.49 31.92 9.54L31.92 9.54L31.92 9.54Q31.56 9.59 31.25 9.75L31.25 9.75L31.25 9.75Q30.94 9.91 30.74 10.19L30.74 10.19L30.74 10.19Q30.55 10.47 30.55 10.93L30.55 10.93L30.55 10.93Q30.55 11.34 30.68 11.62L30.68 11.62L30.68 11.62Q30.81 11.90 31.06 12.07L31.06 12.07L31.06 12.07Q31.30 12.24 31.65 12.31L31.65 12.31L31.65 12.31Q31.99 12.39 32.42 12.39ZM32.34 5.64L32.34 5.64L32.34 5.64Q33.05 5.64 33.55 5.84L33.55 5.84L33.55 5.84Q34.05 6.05 34.36 6.41L34.36 6.41L34.36 6.41Q34.66 6.76 34.80 7.25L34.80 7.25L34.80 7.25Q34.94 7.74 34.94 8.32L34.94 8.32L34.94 12.88L34.94 12.88Q34.80 12.92 34.54 12.97L34.54 12.97L34.54 12.97Q34.27 13.02 33.92 13.08L33.92 13.08L33.92 13.08Q33.57 13.13 33.15 13.17L33.15 13.17L33.15 13.17Q32.72 13.20 32.27 13.20L32.27 13.20L32.27 13.20Q31.70 13.20 31.21 13.08L31.21 13.08L31.21 13.08Q30.73 12.95 30.37 12.68L30.37 12.68L30.37 12.68Q30.02 12.40 29.81 11.98L29.81 11.98L29.81 11.98Q29.61 11.55 29.61 10.93L29.61 10.93L29.61 10.93Q29.61 10.35 29.83 9.93L29.83 9.93L29.83 9.93Q30.06 9.51 30.46 9.23L30.46 9.23L30.46 9.23Q30.87 8.96 31.43 8.83L31.43 8.83L31.43 8.83Q31.99 8.71 32.65 8.71L32.65 8.71L32.65 8.71Q32.84 8.71 33.06 8.73L33.06 8.73L33.06 8.73Q33.28 8.75 33.48 8.79L33.48 8.79L33.48 8.79Q33.68 8.82 33.83 8.86L33.83 8.86L33.83 8.86Q33.98 8.89 34.03 8.92L34.03 8.92L34.03 8.47L34.03 8.47Q34.03 8.09 33.98 7.74L33.98 7.74L33.98 7.74Q33.92 7.38 33.73 7.09L33.73 7.09L33.73 7.09Q33.54 6.80 33.20 6.63L33.20 6.63L33.20 6.63Q32.86 6.45 32.30 6.45L32.30 6.45L32.30 6.45Q31.50 6.45 31.11 6.57L31.11 6.57L31.11 6.57Q30.72 6.68 30.53 6.75L30.53 6.75L30.41 5.95L30.41 5.95Q30.65 5.84 31.14 5.74L31.14 5.74L31.14 5.74Q31.64 5.64 32.34 5.64Z"></path></g><!----><g data-v-423bf9ae="" id="409d2b06-92c2-46c9-a881-0ab547cd7931" transform="matrix(1.0241665840148926,0,0,1.0241665840148926,-7.747453689575195,-2.274379014968872)" stroke="none" fill="white"><path d="M87.4 24.4L51.6 3.7c-1.6-.9-3.6-.9-5.2 0L10.1 24.6h.4c-1.7.9-2.5 2.7-2.5 4.7v39.5c0 1.9.5 3.6 2.2 4.5l36.4 21.2c.8.5 1.6.7 2.5.7h.2c.9 0 1.8-.2 2.6-.7l36.6-21.2c1.6-.9 2.6-2.7 2.6-4.5V29.3c-.1-2.3-1.6-4.2-3.7-4.9zM49 14.2l25.8 14.9L49 44 23.2 29.1 49 14.2zM18 65.8V37.9L43 53v28L18 65.8zM53 81V52.9l28-15.1v28.1L53 81z"></path></g><!----></svg>