<svg data-v-423bf9ae="" xmlns="http://www.w3.org/2000/svg" viewBox="0 0 54.09276003324405 60" class="icon"><!----><!----><!----><!----><g data-v-423bf9ae="" id="29628a66-11fe-4927-b9f0-da80f46aeb1f" transform="matrix(0.6509357690811157,0,0,0.6509357690811157,-5.2074875831604,-1.9690805673599243)" stroke="none" fill="black"><path d="M87.4 24.4L51.6 3.7c-1.6-.9-3.6-.9-5.2 0L10.1 24.6h.4c-1.7.9-2.5 2.7-2.5 4.7v39.5c0 1.9.5 3.6 2.2 4.5l36.4 21.2c.8.5 1.6.7 2.5.7h.2c.9 0 1.8-.2 2.6-.7l36.6-21.2c1.6-.9 2.6-2.7 2.6-4.5V29.3c-.1-2.3-1.6-4.2-3.7-4.9zM49 14.2l25.8 14.9L49 44 23.2 29.1 49 14.2zM18 65.8V37.9L43 53v28L18 65.8zM53 81V52.9l28-15.1v28.1L53 81z"></path></g><!----></svg>